# xmcd
#
# Track frame offsets:
#        150
#        18450
#        34800
#        56625
#        73650
#        94725
#        113625
#        129600
#        148425
#        162675
#        182550
#        199050
#        219900
#        235875
#        253125
#        270375
#
# Disc length: 3627 seconds
#
# Revision: 0
# Processed by: cddbd v1.5.2PL0 Copyright (c) Steve Scherf et al.
# Submitted via: CDGFix 3.5b
#
DISCID=f10e2910
DTITLE=McGraw Tim - QH-002
DYEAR=1900
DGENRE=Karaoke
TTITLE0=McGraw Tim - Last Dollar (fly away)
TTITLE1=McGraw Tim - My little Girl
TTITLE2=McGraw Tim - Live Like You Were Dying
TTITLE3=McGraw Tim - Please Remember Me
TTITLE4=McGraw Tim - Drugs Or Jesus
TTITLE5=McGraw Tim - I've Got Friends That Do
TTITLE6=McGraw Tim - When The Stars Go Blace
TTITLE7=McGraw Tim - Don't Take The Girl
TTITLE8=McGraw Tim - I Like It I Love It
TTITLE9=McGraw Tim - My Best Friend
TTITLE10=McGraw Tim - Do You Want Fries With That
TTITLE11=McGraw Tim - Back When
TTITLE12=McGraw Tim - Real Good Man
TTITLE13=McGraw Tim - It's Your Love (M/F Duet)
TTITLE14=McGraw Tim - It's Your Love (Male Solo)
TTITLE15=McGraw Tim - empty track
EXTD=
EXTT0=
EXTT1=
EXTT2=
EXTT3=
EXTT4=
EXTT5=
EXTT6=
EXTT7=
EXTT8=
EXTT9=
EXTT10=
EXTT11=
EXTT12=
EXTT13=
EXTT14=
EXTT15=
PLAYORDER=
